# xmcd
#
# Track frame offsets: 
#        150
#        11006
#        21469
#        33697
#        44324
#        54877
#        67100
#        76095
#        87811
#        98750
#        109566
#        119002
#        130111
#        140453
#        153935
#        162458
#        174429
#
# Disc length: 2486 seconds
#
# Revision: 0
# Processed by: cddbd v1.5.2PL0 Copyright (c) Steve Scherf et al.
# Submitted via: ExactAudioCopyFreeDBPlugin 1.0
#
DISCID=da09b411
DTITLE=Roy Orbison - The Absolutely Essential Collection CD3
DYEAR=2013
DGENRE=Blues
TTITLE0=Only The Lonely
TTITLE1=Blue Avenue
TTITLE2=Candy Man
TTITLE3=The Crowd
TTITLE4=I Never Knew
TTITLE5=I Can't Stop Loving You
TTITLE6=It's Too Late
TTITLE7=The Actress
TTITLE8=Working For The Man
TTITLE9=I'll Say It's My Fault
TTITLE10=Wedding Day
TTITLE11=Come Back To Me (My Love)
TTITLE12=Lana
TTITLE13=Mama
TTITLE14=Raindrops
TTITLE15=Trying To Get To You
TTITLE16=Leah
EXTD=
EXTT0=
EXTT1=
EXTT2=
EXTT3=
EXTT4=
EXTT5=
EXTT6=
EXTT7=
EXTT8=
EXTT9=
EXTT10=
EXTT11=
EXTT12=
EXTT13=
EXTT14=
EXTT15=
EXTT16=
PLAYORDER=
